<?xml version="1.0" encoding="utf-8"?>
<?xml-stylesheet type="text/xsl" href="rss1.xsl"?>
<rss version="2.0" xmlns:atom="http://www.w3.org/2005/Atom" xmlns:content="http://purl.org/rss/1.0/modules/content/" xmlns:dc="http://purl.org/dc/elements/1.1/" xmlns:media="http://search.yahoo.com/mrss/">
<channel>
 <title>Getty</title>
 <link>http://www.gettyimg.com/</link>
 <atom:link href="http://www.gettyimg.com/" rel="self" type="application/rss+xml" />

 
                <item>
                <title><![CDATA[【HD Live Performances】WEB-RiP - Kacey Musgraves 'Saturday Night Live' 1080 NBC WEB-DL AAC 2.0 H.264-fstambuk]]></title>
                <link><![CDATA[https://sharemania.us/threads/kacey-musgraves-saturday-night-live-1080-nbc-web-dl-aac-2-0-h-264-fstambuk.239152/]]></link>
                <description><![CDATA[<article>
<blockquote class="messageText SelectQuoteContainer ugc baseHtml">
<div style="text-align: center"><img src="https://i.ibb.co/sjkY0tt/20240303203245.gif" class="bbCodeImage LbImage" alt="[​IMG]" data-url="https://i.ibb.co/sjkY0tt/20240303203245.gif" style=""><br>
​</div>
<div class="ToggleTriggerAnchor bbCodeSpoilerContainer">
<button type="button" class="button bbCodeSpoilerButton ToggleTrigger Tooltip JsOnly" data-target="> .SpoilerTarget"><span>Spoiler: <span class="SpoilerTitle">SNL</span></span></button>
<div class="SpoilerTarget bbCodeSpoilerText">
<div class="bbCodeBlock bbCodeCode">
<div class="type">Code:</div>
<pre>Format                                   : MPEG-4
Format profile                           : Base Media
Codec ID                                 : isom (isom/iso2/avc1/mp41)
File size                                : 228 MiB
Duration                                 : 4 min 1 s
Overall bit rate mode                    : Variable
Overall bit rate                         : 7 944 kb/s
Writing application                      : Lavf58.32.104

Video
ID                                       : 1
Format                                   : AVC
Format/Info                              : Advanced Video Codec
Format profile                           : High@L4
Format settings                          : CABAC / 3 Ref Frames
Format settings, CABAC                   : Yes
Format settings, Reference frames        : 3 frames
Codec ID                                 : avc1
Codec ID/Info                            : Advanced Video Coding
Duration                                 : 4 min 1 s
Bit rate                                 : 7 814 kb/s
Width                                    : 1 920 pixels
Height                                   : 1 080 pixels
Display aspect ratio                     : 16:9
Frame rate mode                          : Constant
Frame rate                               : 29.970 (30000/1001) FPS
Original frame rate                      : 29.970 (29970/1000) FPS
Color space                              : YUV
Chroma subsampling                       : 4:2:0
Bit depth                                : 8 bits
Scan type                                : Progressive
Bits/(Pixel*Frame)                       : 0.126
Stream size                              : 225 MiB (99%)
Writing library                          : x264 core 164 r3095 baee400
Encoding settings                        : cabac=1 / ref=3 / deblock=1:0:0 / analyse=0x3:0x113 / me=umh / subme=7 / psy=1 / psy_rd=0.00:0.00 / mixed_ref=1 / me_range=16 / chroma_me=1 / trellis=1 / 8x8dct=1 / cqm=0 / deadzone=21,11 / fast_pskip=1 / chroma_qp_offset=0 / threads=34 / lookahead_threads=5 / sliced_threads=0 / nr=0 / decimate=1 / interlaced=0 / bluray_compat=0 / constrained_intra=0 / bframes=2 / b_pyramid=0 / b_adapt=1 / b_bias=0 / direct=1 / weightb=1 / open_gop=0 / weightp=2 / keyint=60 / keyint_min=6 / scenecut=0 / intra_refresh=0 / rc_lookahead=60 / rc=2pass / mbtree=1 / bitrate=7814 / ratetol=1.0 / qcomp=0.60 / qpmin=10 / qpmax=51 / qpstep=4 / cplxblur=20.0 / qblur=0.5 / vbv_maxrate=11729 / vbv_bufsize=11729 / nal_hrd=none / filler=0 / ip_ratio=1.41 / aq=1:1.00
Color range                              : Limited
Color primaries                          : BT.709
Transfer characteristics                 : BT.709
Matrix coefficients                      : BT.709
Codec configuration box                  : avcC

Audio
ID                                       : 2
Format                                   : AAC LC
Format/Info                              : Advanced Audio Codec Low Complexity
Codec ID                                 : mp4a-40-2
Duration                                 : 4 min 1 s
Bit rate mode                            : Variable
Bit rate                                 : 96.0 kb/s
Maximum bit rate                         : 106 kb/s
Channel(s)                               : 2 channels
Channel layout                           : L R
Sampling rate                            : 48.0 kHz
Frame rate                               : 46.875 FPS (1024 SPF)
Compression mode                         : Lossy
Stream size                              : 2.74 MiB (1%)
Default                                  : Yes
Alternate group                          : 1

Text #1
ID                                       : 1-CC1
Format                                   : EIA-608
Muxing mode                              : SCTE 128 / DTVCC Transport
Muxing mode, more info                   : Muxed in Video #1
Duration                                 : 4 min 1 s
Bit rate mode                            : Constant
Stream size                              : 0.00 Byte (0%)
CaptionServiceName                       : CC1

Text #2
ID                                       : 1-1
Format                                   : EIA-708
Muxing mode                              : SCTE 128 / DTVCC Transport
Muxing mode, more info                   : Muxed in Video #1
Duration                                 : 4 min 1 s
Bit rate mode                            : Constant
Stream size                              : 0.00 Byte (0%)

-

Format                                   : MPEG-4
Format profile                           : Base Media
Codec ID                                 : isom (isom/iso2/avc1/mp41)
File size                                : 172 MiB
Duration                                 : 3 min 1 s
Overall bit rate                         : 7 940 kb/s
Writing application                      : Lavf58.32.104

Video
ID                                       : 1
Format                                   : AVC
Format/Info                              : Advanced Video Codec
Format profile                           : High@L4
Format settings                          : CABAC / 3 Ref Frames
Format settings, CABAC                   : Yes
Format settings, Reference frames        : 3 frames
Codec ID                                 : avc1
Codec ID/Info                            : Advanced Video Coding
Duration                                 : 3 min 1 s
Bit rate                                 : 7 814 kb/s
Width                                    : 1 920 pixels
Height                                   : 1 080 pixels
Display aspect ratio                     : 16:9
Frame rate mode                          : Constant
Frame rate                               : 29.970 (30000/1001) FPS
Original frame rate                      : 29.970 (29970/1000) FPS
Color space                              : YUV
Chroma subsampling                       : 4:2:0
Bit depth                                : 8 bits
Scan type                                : Progressive
Bits/(Pixel*Frame)                       : 0.126
Stream size                              : 169 MiB (99%)
Writing library                          : x264 core 164 r3095 baee400
Encoding settings                        : cabac=1 / ref=3 / deblock=1:0:0 / analyse=0x3:0x113 / me=umh / subme=7 / psy=1 / psy_rd=0.00:0.00 / mixed_ref=1 / me_range=16 / chroma_me=1 / trellis=1 / 8x8dct=1 / cqm=0 / deadzone=21,11 / fast_pskip=1 / chroma_qp_offset=0 / threads=34 / lookahead_threads=5 / sliced_threads=0 / nr=0 / decimate=1 / interlaced=0 / bluray_compat=0 / constrained_intra=0 / bframes=2 / b_pyramid=0 / b_adapt=1 / b_bias=0 / direct=1 / weightb=1 / open_gop=0 / weightp=2 / keyint=60 / keyint_min=6 / scenecut=0 / intra_refresh=0 / rc_lookahead=60 / rc=2pass / mbtree=1 / bitrate=7814 / ratetol=1.0 / qcomp=0.60 / qpmin=10 / qpmax=51 / qpstep=4 / cplxblur=20.0 / qblur=0.5 / vbv_maxrate=11729 / vbv_bufsize=11729 / nal_hrd=none / filler=0 / ip_ratio=1.41 / aq=1:1.00
Color range                              : Limited
Color primaries                          : BT.709
Transfer characteristics                 : BT.709
Matrix coefficients                      : BT.709
Codec configuration box                  : avcC

Audio
ID                                       : 2
Format                                   : AAC LC
Format/Info                              : Advanced Audio Codec Low Complexity
Codec ID                                 : mp4a-40-2
Duration                                 : 3 min 1 s
Bit rate mode                            : Constant
Bit rate                                 : 93.6 kb/s
Channel(s)                               : 2 channels
Channel layout                           : L R
Sampling rate                            : 48.0 kHz
Frame rate                               : 46.875 FPS (1024 SPF)
Compression mode                         : Lossy
Stream size                              : 2.02 MiB (1%)
Default                                  : Yes
Alternate group                          : 1

Text #1
ID                                       : 1-CC1
Format                                   : EIA-608
Muxing mode                              : SCTE 128 / DTVCC Transport
Muxing mode, more info                   : Muxed in Video #1
Duration                                 : 3 min 1 s
Bit rate mode                            : Constant
Stream size                              : 0.00 Byte (0%)
CaptionServiceName                       : CC1

Text #2
ID                                       : 1-1
Format                                   : EIA-708
Muxing mode                              : SCTE 128 / DTVCC Transport
Muxing mode, more info                   : Muxed in Video #1
Duration                                 : 3 min 1 s
Bit rate mode                            : Constant
Stream size                              : 0.00 Byte (0%)</pre>
</div><div style="text-align: center">​</div></div>
</div><div style="text-align: center">
<div class="bbCodeBlock bbCodeVfcHH HiddenContent">
<div class="attribution type">Hidden Content:</div>
<blockquote>You must reply before you can see the hidden data contained here.</blockquote>
</div><img src="https://i.ibb.co/mBpyxrS/20240303203329.gif" class="bbCodeImage LbImage" alt="[​IMG]" data-url="https://i.ibb.co/mBpyxrS/20240303203329.gif" style="">​</div>
<div class="messageTextEndMarker">&nbsp;</div>
</blockquote>
</article>]]></description>
                <author><![CDATA[fstambuk]]></author>
                </item>

                
                <item>
                <title><![CDATA[【Cinema Center】MOVIE - 47 Meters Down (2017) 1080p BluRay x264 - nikt0]]></title>
                <link><![CDATA[https://sharemania.us/threads/47-meters-down-2017-1080p-bluray-x264-nikt0.239151/]]></link>
                <description><![CDATA[<article>
<blockquote class="messageText SelectQuoteContainer ugc baseHtml">
<div style="text-align: center"><img src="https://m.media-amazon.com/images/M/MV5BYTcyMDRiNDQtODRkMy00YjU0LWEwYTEtMzk3NzIzODYzMjU2XkEyXkFqcGdeQXVyMTk5MzE1MTY@._V1_FMjpg_UY8093_.jpg" class="bbCodeImage LbImage" alt="[​IMG]" data-url="https://m.media-amazon.com/images/M/MV5BYTcyMDRiNDQtODRkMy00YjU0LWEwYTEtMzk3NzIzODYzMjU2XkEyXkFqcGdeQXVyMTk5MzE1MTY@._V1_FMjpg_UY8093_.jpg" style=""> ​</div><br>
<div style="text-align: center">Two sisters vacationing in Mexico are trapped in a shark cage at the bottom of the ocean. With less than an hour of oxygen left and great white sharks circling nearby, they must fight to survive.<br>
<br>
Download:<br>
<br>
<div class="bbCodeBlock bbCodeVfcHH HiddenContent">
<div class="attribution type">Hidden Content:</div>
<blockquote>You must either reply or click 'Like' to see the hidden information contained here.</blockquote>
</div></div>
<div class="messageTextEndMarker">&nbsp;</div>
</blockquote>
</article>]]></description>
                <author><![CDATA[sunnyillion]]></author>
                </item>

                </channel></rss>